<mxfile host="app.diagrams.net" agent="Mozilla/5.0 (Windows NT 10.0; Win64; x64) AppleWebKit/537.36 (KHTML, like Gecko) Chrome/128.0.0.0 Safari/537.36" version="24.7.14">
  <diagram name="Page-1" id="eqVBurtdjHa6qu2esEun">
    <mxGraphModel dx="913" dy="461" grid="1" gridSize="10" guides="1" tooltips="1" connect="1" arrows="1" fold="1" page="1" pageScale="1" pageWidth="827" pageHeight="1169" math="0" shadow="0">
      <root>
        <mxCell id="0" />
        <mxCell id="1" parent="0" />
        <mxCell id="5VNTvWb2H_tXCrT-1Imk-17" value="" style="rounded=0;whiteSpace=wrap;html=1;strokeColor=#75A15C;" vertex="1" parent="1">
          <mxGeometry x="180" y="250" width="220" height="40" as="geometry" />
        </mxCell>
        <mxCell id="5VNTvWb2H_tXCrT-1Imk-10" value="" style="shape=image;verticalLabelPosition=bottom;labelBackgroundColor=default;verticalAlign=top;aspect=fixed;imageAspect=0;image=https://www.actuia.com/wp-content/uploads/2022/01/logopython.png;clipPath=inset(13.08% 10.67% 19.23% 9%);" vertex="1" parent="1">
          <mxGeometry x="303.7" y="251" width="94.55" height="34.52448132780083" as="geometry" />
        </mxCell>
        <mxCell id="5VNTvWb2H_tXCrT-1Imk-9" value="" style="shape=image;verticalLabelPosition=bottom;labelBackgroundColor=default;verticalAlign=top;aspect=fixed;imageAspect=0;image=https://datascientest.com/wp-content/uploads/2022/09/opencv-dst3.jpg;clipPath=inset(28.01% 15% 27.3% 15.33%);" vertex="1" parent="1">
          <mxGeometry x="182.44" y="254.74" width="101.27" height="30.526363636363634" as="geometry" />
        </mxCell>
        <mxCell id="5VNTvWb2H_tXCrT-1Imk-3" value="" style="shape=image;verticalLabelPosition=bottom;labelBackgroundColor=default;verticalAlign=top;aspect=fixed;imageAspect=0;image=https://www.bioalaune.com/img/article/7022-plante_arbre_monde_vegetal_intelligent_398.jpg;" vertex="1" parent="1">
          <mxGeometry x="330" y="110" width="143.42" height="80" as="geometry" />
        </mxCell>
        <mxCell id="5VNTvWb2H_tXCrT-1Imk-4" value="&lt;b&gt;&lt;font color=&quot;#75a15c&quot; style=&quot;font-size: 18px;&quot;&gt;Image plante&lt;/font&gt;&lt;/b&gt;" style="text;html=1;align=center;verticalAlign=middle;whiteSpace=wrap;rounded=0;" vertex="1" parent="1">
          <mxGeometry x="311.71" y="80" width="180" height="30" as="geometry" />
        </mxCell>
        <mxCell id="5VNTvWb2H_tXCrT-1Imk-5" value="" style="endArrow=classic;html=1;rounded=0;entryX=0.534;entryY=0.004;entryDx=0;entryDy=0;entryPerimeter=0;" edge="1" parent="1" target="5VNTvWb2H_tXCrT-1Imk-17">
          <mxGeometry width="50" height="50" relative="1" as="geometry">
            <mxPoint x="348" y="190" as="sourcePoint" />
            <mxPoint x="308" y="240" as="targetPoint" />
          </mxGeometry>
        </mxCell>
        <mxCell id="5VNTvWb2H_tXCrT-1Imk-6" value="" style="endArrow=classic;html=1;rounded=0;entryX=0.5;entryY=0;entryDx=0;entryDy=0;" edge="1" parent="1" target="5VNTvWb2H_tXCrT-1Imk-14">
          <mxGeometry width="50" height="50" relative="1" as="geometry">
            <mxPoint x="442" y="190" as="sourcePoint" />
            <mxPoint x="472" y="240" as="targetPoint" />
          </mxGeometry>
        </mxCell>
        <mxCell id="5VNTvWb2H_tXCrT-1Imk-11" value="&lt;b&gt;&lt;font style=&quot;font-size: 23px;&quot;&gt;+&lt;/font&gt;&lt;/b&gt;" style="text;html=1;align=center;verticalAlign=middle;whiteSpace=wrap;rounded=0;" vertex="1" parent="1">
          <mxGeometry x="282" y="251" width="25.7" height="35" as="geometry" />
        </mxCell>
        <mxCell id="5VNTvWb2H_tXCrT-1Imk-12" value="&lt;font style=&quot;font-size: 11px;&quot;&gt;&lt;b&gt;Entrée&lt;/b&gt;&lt;/font&gt;" style="text;html=1;align=center;verticalAlign=middle;whiteSpace=wrap;rounded=0;" vertex="1" parent="1">
          <mxGeometry x="285.71" y="192.95" width="50" height="30" as="geometry" />
        </mxCell>
        <mxCell id="5VNTvWb2H_tXCrT-1Imk-13" value="&lt;font style=&quot;font-size: 11px;&quot;&gt;&lt;b&gt;Métadonnée&lt;/b&gt;&lt;/font&gt;" style="text;html=1;align=center;verticalAlign=middle;whiteSpace=wrap;rounded=0;" vertex="1" parent="1">
          <mxGeometry x="473.42" y="192.95" width="50" height="30" as="geometry" />
        </mxCell>
        <mxCell id="5VNTvWb2H_tXCrT-1Imk-14" value="&lt;b&gt;Informations EXIF&amp;nbsp;&lt;/b&gt;" style="rounded=0;whiteSpace=wrap;html=1;fillColor=none;strokeColor=#82b366;" vertex="1" parent="1">
          <mxGeometry x="428.42" y="250" width="140" height="40" as="geometry" />
        </mxCell>
        <mxCell id="5VNTvWb2H_tXCrT-1Imk-19" value="" style="endArrow=classic;html=1;rounded=0;entryX=0;entryY=0;entryDx=0;entryDy=0;exitX=0.54;exitY=1.009;exitDx=0;exitDy=0;exitPerimeter=0;" edge="1" parent="1" source="5VNTvWb2H_tXCrT-1Imk-17" target="5VNTvWb2H_tXCrT-1Imk-23">
          <mxGeometry width="50" height="50" relative="1" as="geometry">
            <mxPoint x="360" y="330" as="sourcePoint" />
            <mxPoint x="410.145" y="330" as="targetPoint" />
          </mxGeometry>
        </mxCell>
        <mxCell id="5VNTvWb2H_tXCrT-1Imk-20" value="" style="endArrow=classic;html=1;rounded=0;entryX=1;entryY=0;entryDx=0;entryDy=0;exitX=0.54;exitY=1.009;exitDx=0;exitDy=0;exitPerimeter=0;" edge="1" parent="1" target="5VNTvWb2H_tXCrT-1Imk-23">
          <mxGeometry width="50" height="50" relative="1" as="geometry">
            <mxPoint x="500" y="290" as="sourcePoint" />
            <mxPoint x="410.145" y="330" as="targetPoint" />
          </mxGeometry>
        </mxCell>
        <mxCell id="5VNTvWb2H_tXCrT-1Imk-21" value="&lt;b&gt;API d&#39;identification&lt;/b&gt;" style="rounded=0;whiteSpace=wrap;html=1;strokeColor=#75A15C;" vertex="1" parent="1">
          <mxGeometry x="439.99999999999994" y="400" width="140" height="30" as="geometry" />
        </mxCell>
        <mxCell id="5VNTvWb2H_tXCrT-1Imk-22" value="" style="endArrow=classic;html=1;rounded=0;entryX=0.5;entryY=0;entryDx=0;entryDy=0;exitX=1;exitY=1;exitDx=0;exitDy=0;" edge="1" parent="1" source="5VNTvWb2H_tXCrT-1Imk-23" target="5VNTvWb2H_tXCrT-1Imk-21">
          <mxGeometry width="50" height="50" relative="1" as="geometry">
            <mxPoint x="442" y="405" as="sourcePoint" />
            <mxPoint x="412" y="495" as="targetPoint" />
          </mxGeometry>
        </mxCell>
        <mxCell id="5VNTvWb2H_tXCrT-1Imk-23" value="&lt;b&gt;Analyse d&#39;image&lt;/b&gt;" style="rounded=0;whiteSpace=wrap;html=1;strokeColor=#75A15C;" vertex="1" parent="1">
          <mxGeometry x="353.42" y="330" width="120" height="30" as="geometry" />
        </mxCell>
        <mxCell id="5VNTvWb2H_tXCrT-1Imk-26" value="&lt;b&gt;Hauteur&lt;/b&gt;" style="rounded=0;whiteSpace=wrap;html=1;strokeColor=#75A15C;" vertex="1" parent="1">
          <mxGeometry x="90" y="400" width="80" height="25" as="geometry" />
        </mxCell>
        <mxCell id="5VNTvWb2H_tXCrT-1Imk-27" value="&lt;b&gt;Largeur&lt;/b&gt;" style="rounded=0;whiteSpace=wrap;html=1;strokeColor=#75A15C;" vertex="1" parent="1">
          <mxGeometry x="193.07999999999998" y="400" width="80" height="25" as="geometry" />
        </mxCell>
        <mxCell id="5VNTvWb2H_tXCrT-1Imk-28" value="&lt;b&gt;Densité&lt;/b&gt;" style="rounded=0;whiteSpace=wrap;html=1;strokeColor=#75A15C;" vertex="1" parent="1">
          <mxGeometry x="290" y="400" width="80" height="25" as="geometry" />
        </mxCell>
        <mxCell id="5VNTvWb2H_tXCrT-1Imk-31" value="" style="endArrow=classic;html=1;rounded=0;entryX=0.647;entryY=-0.08;entryDx=0;entryDy=0;exitX=1;exitY=1;exitDx=0;exitDy=0;entryPerimeter=0;" edge="1" parent="1" target="5VNTvWb2H_tXCrT-1Imk-26">
          <mxGeometry width="50" height="50" relative="1" as="geometry">
            <mxPoint x="353.41999999999996" y="360" as="sourcePoint" />
            <mxPoint x="390.41999999999996" y="400" as="targetPoint" />
          </mxGeometry>
        </mxCell>
        <mxCell id="5VNTvWb2H_tXCrT-1Imk-32" value="" style="endArrow=classic;html=1;rounded=0;entryX=0.5;entryY=0;entryDx=0;entryDy=0;" edge="1" parent="1" target="5VNTvWb2H_tXCrT-1Imk-27">
          <mxGeometry width="50" height="50" relative="1" as="geometry">
            <mxPoint x="350" y="360" as="sourcePoint" />
            <mxPoint x="150" y="400" as="targetPoint" />
          </mxGeometry>
        </mxCell>
        <mxCell id="5VNTvWb2H_tXCrT-1Imk-33" value="" style="endArrow=classic;html=1;rounded=0;entryX=0.5;entryY=0;entryDx=0;entryDy=0;exitX=0;exitY=1;exitDx=0;exitDy=0;" edge="1" parent="1" source="5VNTvWb2H_tXCrT-1Imk-23" target="5VNTvWb2H_tXCrT-1Imk-28">
          <mxGeometry width="50" height="50" relative="1" as="geometry">
            <mxPoint x="360" y="370" as="sourcePoint" />
            <mxPoint x="243" y="410" as="targetPoint" />
          </mxGeometry>
        </mxCell>
        <mxCell id="5VNTvWb2H_tXCrT-1Imk-34" value="&lt;b&gt;Mesures&lt;/b&gt;" style="text;html=1;align=center;verticalAlign=middle;whiteSpace=wrap;rounded=0;" vertex="1" parent="1">
          <mxGeometry x="264.85" y="340" width="60" height="30" as="geometry" />
        </mxCell>
        <mxCell id="5VNTvWb2H_tXCrT-1Imk-35" value="&lt;b&gt;Données extraites&lt;/b&gt;" style="text;html=1;align=center;verticalAlign=middle;whiteSpace=wrap;rounded=0;" vertex="1" parent="1">
          <mxGeometry x="480" y="340" width="110" height="30" as="geometry" />
        </mxCell>
        <mxCell id="5VNTvWb2H_tXCrT-1Imk-36" value="&lt;b&gt;Type plante&lt;/b&gt;" style="rounded=0;whiteSpace=wrap;html=1;strokeColor=#75A15C;" vertex="1" parent="1">
          <mxGeometry x="400" y="471" width="100" height="30" as="geometry" />
        </mxCell>
        <mxCell id="5VNTvWb2H_tXCrT-1Imk-37" value="&lt;b&gt;Santé plante&lt;/b&gt;" style="rounded=0;whiteSpace=wrap;html=1;strokeColor=#75A15C;" vertex="1" parent="1">
          <mxGeometry x="550" y="471" width="100" height="30" as="geometry" />
        </mxCell>
        <mxCell id="5VNTvWb2H_tXCrT-1Imk-38" value="" style="endArrow=classic;html=1;rounded=0;entryX=0.5;entryY=0;entryDx=0;entryDy=0;exitX=0.306;exitY=1.048;exitDx=0;exitDy=0;exitPerimeter=0;" edge="1" parent="1" source="5VNTvWb2H_tXCrT-1Imk-21" target="5VNTvWb2H_tXCrT-1Imk-36">
          <mxGeometry width="50" height="50" relative="1" as="geometry">
            <mxPoint x="363" y="370" as="sourcePoint" />
            <mxPoint x="340" y="410" as="targetPoint" />
          </mxGeometry>
        </mxCell>
        <mxCell id="5VNTvWb2H_tXCrT-1Imk-39" value="" style="endArrow=classic;html=1;rounded=0;entryX=0.5;entryY=0;entryDx=0;entryDy=0;exitX=0.597;exitY=0.976;exitDx=0;exitDy=0;exitPerimeter=0;" edge="1" parent="1" source="5VNTvWb2H_tXCrT-1Imk-21" target="5VNTvWb2H_tXCrT-1Imk-37">
          <mxGeometry width="50" height="50" relative="1" as="geometry">
            <mxPoint x="560" y="430" as="sourcePoint" />
            <mxPoint x="540" y="460" as="targetPoint" />
          </mxGeometry>
        </mxCell>
        <mxCell id="5VNTvWb2H_tXCrT-1Imk-40" value="&lt;b&gt;Détection&lt;/b&gt;" style="text;html=1;align=center;verticalAlign=middle;whiteSpace=wrap;rounded=0;" vertex="1" parent="1">
          <mxGeometry x="568.42" y="430" width="110" height="30" as="geometry" />
        </mxCell>
        <mxCell id="5VNTvWb2H_tXCrT-1Imk-41" value="&lt;b&gt;Identification&lt;/b&gt;" style="text;html=1;align=center;verticalAlign=middle;whiteSpace=wrap;rounded=0;" vertex="1" parent="1">
          <mxGeometry x="363.41999999999996" y="431" width="110" height="30" as="geometry" />
        </mxCell>
      </root>
    </mxGraphModel>
  </diagram>
</mxfile>
